<svg width="694" height="203" viewBox="0 0 694 203" fill="none" xmlns="http://www.w3.org/2000/svg">
<g clip-path="url(#clip0_14_4285)">
<rect width="694" height="203" rx="50" fill="url(#paint0_linear_14_4285)"/>
<path d="M84.544 122H72L64.512 89.808H75.072L77.184 104.656L78.4 114.32H79.104L80.896 104.656L84.8 89.808H97.024L100.992 104.72L102.72 114.32H103.36L104.512 104.72L106.752 89.808H116.864L109.376 122H96.832L92.672 106.704L91.072 98.256H90.368L88.768 106.704L84.544 122ZM151.946 122H142.346V103.504C142.346 101.285 141.898 99.728 141.002 98.832C140.106 97.8933 138.442 97.424 136.01 97.424C133.748 97.424 132.084 97.8933 131.018 98.832C129.951 99.728 129.418 101.392 129.418 103.824H128.202L127.818 94.8H129.802C130.399 93.776 131.167 92.8373 132.106 91.984C133.087 91.1307 134.239 90.448 135.562 89.936C136.927 89.424 138.463 89.168 140.17 89.168C142.943 89.168 145.183 89.7227 146.89 90.832C148.639 91.9413 149.919 93.456 150.729 95.376C151.54 97.2533 151.946 99.3227 151.946 101.584V122ZM129.418 122H119.882V79.12H129.418V122ZM186.564 122H177.668V116.368L177.476 114.512V102.032C177.476 100.155 176.985 98.9387 176.004 98.384C175.023 97.8293 173.572 97.552 171.652 97.552C169.732 97.552 168.345 97.872 167.492 98.512C166.639 99.152 166.212 100.283 166.212 101.904V102.608H157.06V101.904C157.06 99.344 157.679 97.104 158.916 95.184C160.196 93.264 161.945 91.792 164.164 90.768C166.425 89.7013 169.071 89.168 172.1 89.168C175.257 89.168 177.903 89.7227 180.036 90.832C182.212 91.8987 183.833 93.456 184.9 95.504C186.009 97.552 186.564 100.027 186.564 102.928V122ZM166.34 122.64C163.481 122.64 161.071 121.893 159.108 120.4C157.188 118.907 156.228 116.709 156.228 113.808C156.228 112.144 156.612 110.693 157.38 109.456C158.191 108.219 159.343 107.216 160.836 106.448C162.372 105.637 164.249 105.061 166.468 104.72L178.116 102.992V109.2L168.26 110.736C167.279 110.907 166.553 111.163 166.084 111.504C165.615 111.845 165.38 112.357 165.38 113.04C165.38 113.893 165.721 114.491 166.404 114.832C167.087 115.173 168.132 115.344 169.54 115.344C170.863 115.344 172.121 115.195 173.316 114.896C174.553 114.555 175.556 113.957 176.324 113.104C177.092 112.208 177.476 110.928 177.476 109.264L178.372 117.648H177.284C176.729 118.416 175.961 119.184 174.98 119.952C174.041 120.72 172.868 121.36 171.46 121.872C170.052 122.384 168.345 122.64 166.34 122.64ZM206.855 122.128C202.673 122.128 199.559 121.296 197.51 119.632C195.463 117.968 194.439 115.237 194.439 111.44V90.768L196.487 82.32H204.039V110.352C204.039 111.76 204.38 112.635 205.062 112.976C205.745 113.317 207.111 113.488 209.159 113.488H213.127V121.488C212.359 121.659 211.399 121.808 210.247 121.936C209.137 122.064 208.007 122.128 206.855 122.128ZM213.127 97.744H189.319V89.808H213.127V97.744ZM229.265 90.448H217.233V79.12H229.265V90.448ZM220.689 99.92H217.489V93.648H220.433C221.115 93.648 221.606 93.52 221.905 93.264C222.203 93.008 222.353 92.4533 222.353 91.6V88.976H229.265V91.472C229.265 94.3307 228.518 96.464 227.025 97.872C225.531 99.2373 223.419 99.92 220.689 99.92ZM248.526 122.64C243.491 122.64 239.715 121.68 237.198 119.76C234.723 117.84 233.486 114.939 233.486 111.056V110.864H242.638V112.208C242.638 112.976 242.83 113.573 243.214 114C243.598 114.427 244.216 114.725 245.07 114.896C245.966 115.024 247.182 115.088 248.718 115.088C250.04 115.088 251.022 115.024 251.662 114.896C252.302 114.725 252.728 114.491 252.942 114.192C253.155 113.851 253.262 113.424 253.262 112.912C253.262 112.016 252.92 111.419 252.238 111.12C251.598 110.779 250.211 110.416 248.078 110.032L243.214 109.136C241.123 108.752 239.352 108.176 237.902 107.408C236.451 106.64 235.342 105.616 234.574 104.336C233.806 103.013 233.422 101.349 233.422 99.344C233.422 96.3573 234.595 93.9253 236.942 92.048C239.331 90.128 242.83 89.168 247.438 89.168C250.083 89.168 252.451 89.5733 254.542 90.384C256.632 91.1947 258.275 92.4107 259.47 94.032C260.707 95.6533 261.326 97.68 261.326 100.112V101.008H252.174V100.112C252.174 99.3867 252.046 98.7893 251.79 98.32C251.534 97.808 251.043 97.4453 250.318 97.232C249.592 96.976 248.547 96.848 247.182 96.848C245.262 96.848 243.982 97.0613 243.342 97.488C242.744 97.872 242.446 98.448 242.446 99.216C242.446 99.984 242.702 100.539 243.214 100.88C243.726 101.221 244.942 101.584 246.862 101.968L252.75 103.184C255.011 103.611 256.846 104.251 258.254 105.104C259.662 105.915 260.686 106.96 261.326 108.24C262.008 109.52 262.35 111.035 262.35 112.784C262.35 115.813 261.155 118.224 258.766 120.016C256.419 121.765 253.006 122.64 248.526 122.64ZM293.026 122.64C287.991 122.64 284.215 121.68 281.698 119.76C279.223 117.84 277.986 114.939 277.986 111.056V110.864H287.138V112.208C287.138 112.976 287.33 113.573 287.714 114C288.098 114.427 288.716 114.725 289.57 114.896C290.466 115.024 291.682 115.088 293.218 115.088C294.54 115.088 295.522 115.024 296.162 114.896C296.802 114.725 297.228 114.491 297.442 114.192C297.655 113.851 297.762 113.424 297.762 112.912C297.762 112.016 297.42 111.419 296.738 111.12C296.098 110.779 294.711 110.416 292.578 110.032L287.714 109.136C285.623 108.752 283.852 108.176 282.402 107.408C280.951 106.64 279.842 105.616 279.074 104.336C278.306 103.013 277.922 101.349 277.922 99.344C277.922 96.3573 279.095 93.9253 281.442 92.048C283.831 90.128 287.33 89.168 291.938 89.168C294.583 89.168 296.951 89.5733 299.042 90.384C301.132 91.1947 302.775 92.4107 303.97 94.032C305.207 95.6533 305.826 97.68 305.826 100.112V101.008H296.674V100.112C296.674 99.3867 296.546 98.7893 296.29 98.32C296.034 97.808 295.543 97.4453 294.818 97.232C294.092 96.976 293.047 96.848 291.682 96.848C289.762 96.848 288.482 97.0613 287.842 97.488C287.244 97.872 286.946 98.448 286.946 99.216C286.946 99.984 287.202 100.539 287.714 100.88C288.226 101.221 289.442 101.584 291.362 101.968L297.25 103.184C299.511 103.611 301.346 104.251 302.754 105.104C304.162 105.915 305.186 106.96 305.826 108.24C306.508 109.52 306.85 111.035 306.85 112.784C306.85 115.813 305.655 118.224 303.266 120.016C300.919 121.765 297.506 122.64 293.026 122.64ZM343.071 122H333.471V103.504C333.471 101.285 333.023 99.728 332.127 98.832C331.231 97.8933 329.567 97.424 327.135 97.424C324.873 97.424 323.209 97.8933 322.143 98.832C321.076 99.728 320.543 101.392 320.543 103.824H319.327L318.943 94.8H320.927C321.524 93.776 322.292 92.8373 323.231 91.984C324.212 91.1307 325.364 90.448 326.687 89.936C328.052 89.424 329.588 89.168 331.295 89.168C334.068 89.168 336.308 89.7227 338.015 90.832C339.764 91.9413 341.044 93.456 341.854 95.376C342.665 97.2533 343.071 99.3227 343.071 101.584V122ZM320.543 122H311.007V79.12H320.543V122ZM357.718 86.16H348.31L348.182 79.12H357.718V86.16ZM357.91 122H348.31V89.808H357.91V122ZM383.033 122.64C380.515 122.64 378.339 122.192 376.505 121.296C374.67 120.357 373.326 119.013 372.473 117.264H371.129L371.577 108.496H372.793C372.793 109.904 373.07 111.056 373.625 111.952C374.179 112.805 374.969 113.445 375.993 113.872C377.059 114.256 378.361 114.448 379.897 114.448C381.262 114.448 382.393 114.277 383.289 113.936C384.227 113.595 384.953 113.083 385.465 112.4C386.019 111.717 386.403 110.843 386.617 109.776C386.83 108.667 386.937 107.387 386.937 105.936C386.937 104.485 386.83 103.227 386.617 102.16C386.403 101.051 386.019 100.155 385.465 99.472C384.953 98.7467 384.227 98.2133 383.289 97.872C382.393 97.5307 381.262 97.36 379.897 97.36C378.361 97.36 377.059 97.5733 375.993 98C374.969 98.384 374.179 99.0027 373.625 99.856C373.07 100.709 372.793 101.861 372.793 103.312H371.577L371.129 94.288H373.177C373.902 92.9227 375.097 91.728 376.76 90.704C378.467 89.68 380.537 89.168 382.969 89.168C387.406 89.168 390.755 90.6827 393.017 93.712C395.321 96.7413 396.472 100.816 396.472 105.936C396.472 110.971 395.321 115.024 393.017 118.096C390.755 121.125 387.427 122.64 383.033 122.64ZM372.153 122H363.257V79.12H372.793V114.384L372.153 115.216V122ZM430.189 122H421.293V116.368L421.101 114.512V102.032C421.101 100.155 420.61 98.9387 419.629 98.384C418.648 97.8293 417.197 97.552 415.277 97.552C413.357 97.552 411.97 97.872 411.117 98.512C410.264 99.152 409.837 100.283 409.837 101.904V102.608H400.685V101.904C400.685 99.344 401.304 97.104 402.541 95.184C403.821 93.264 405.57 91.792 407.789 90.768C410.05 89.7013 412.696 89.168 415.725 89.168C418.882 89.168 421.528 89.7227 423.661 90.832C425.837 91.8987 427.458 93.456 428.525 95.504C429.634 97.552 430.189 100.027 430.189 102.928V122ZM409.965 122.64C407.106 122.64 404.696 121.893 402.733 120.4C400.813 118.907 399.853 116.709 399.853 113.808C399.853 112.144 400.237 110.693 401.005 109.456C401.816 108.219 402.968 107.216 404.461 106.448C405.997 105.637 407.874 105.061 410.093 104.72L421.741 102.992V109.2L411.885 110.736C410.904 110.907 410.178 111.163 409.709 111.504C409.24 111.845 409.005 112.357 409.005 113.04C409.005 113.893 409.346 114.491 410.029 114.832C410.712 115.173 411.757 115.344 413.165 115.344C414.488 115.344 415.746 115.195 416.941 114.896C418.178 114.555 419.181 113.957 419.949 113.104C420.717 112.208 421.101 110.928 421.101 109.264L421.997 117.648H420.909C420.354 118.416 419.586 119.184 418.605 119.952C417.666 120.72 416.493 121.36 415.085 121.872C413.677 122.384 411.97 122.64 409.965 122.64ZM445.418 122H435.882V89.808H444.778V98.96L445.418 99.28V122ZM445.418 101.84H443.626V94.992H445.162C445.972 93.3707 447.103 92.0053 448.554 90.896C450.047 89.744 451.924 89.168 454.186 89.168C456.447 89.168 458.239 89.68 459.562 90.704C460.927 91.6853 461.908 93.0507 462.506 94.8C463.103 96.5067 463.402 98.448 463.402 100.624V103.568H453.866V101.84C453.866 100.091 453.567 98.896 452.97 98.256C452.372 97.616 451.306 97.296 449.77 97.296C448.319 97.296 447.231 97.616 446.506 98.256C445.78 98.896 445.418 100.091 445.418 101.84ZM495.564 122H486.668V116.368L486.476 114.512V102.032C486.476 100.155 485.985 98.9387 485.004 98.384C484.023 97.8293 482.572 97.552 480.652 97.552C478.732 97.552 477.345 97.872 476.492 98.512C475.639 99.152 475.212 100.283 475.212 101.904V102.608H466.06V101.904C466.06 99.344 466.679 97.104 467.916 95.184C469.196 93.264 470.945 91.792 473.164 90.768C475.425 89.7013 478.071 89.168 481.1 89.168C484.257 89.168 486.903 89.7227 489.036 90.832C491.212 91.8987 492.833 93.456 493.9 95.504C495.009 97.552 495.564 100.027 495.564 102.928V122ZM475.34 122.64C472.481 122.64 470.071 121.893 468.108 120.4C466.188 118.907 465.228 116.709 465.228 113.808C465.228 112.144 465.612 110.693 466.38 109.456C467.191 108.219 468.343 107.216 469.836 106.448C471.372 105.637 473.249 105.061 475.468 104.72L487.116 102.992V109.2L477.26 110.736C476.279 110.907 475.553 111.163 475.084 111.504C474.615 111.845 474.38 112.357 474.38 113.04C474.38 113.893 474.721 114.491 475.404 114.832C476.087 115.173 477.132 115.344 478.54 115.344C479.863 115.344 481.121 115.195 482.316 114.896C483.553 114.555 484.556 113.957 485.324 113.104C486.092 112.208 486.476 110.928 486.476 109.264L487.372 117.648H486.284C485.729 118.416 484.961 119.184 483.98 119.952C483.041 120.72 481.868 121.36 480.46 121.872C479.052 122.384 477.345 122.64 475.34 122.64ZM554.505 122H544.905V103.504C544.905 101.285 544.478 99.728 543.625 98.832C542.771 97.8933 541.193 97.424 538.889 97.424C536.713 97.424 535.134 97.8507 534.153 98.704C533.171 99.5573 532.681 101.157 532.681 103.504L531.465 103.76L530.505 95.44H531.849C532.446 94.2453 533.214 93.2 534.153 92.304C535.134 91.3653 536.329 90.6187 537.737 90.064C539.145 89.4667 540.83 89.168 542.793 89.168C545.566 89.168 547.806 89.7227 549.513 90.832C551.219 91.9413 552.478 93.456 553.289 95.376C554.099 97.2533 554.505 99.3227 554.505 101.584V122ZM510.793 122H501.257V89.808H510.153V98.896L510.793 99.216V122ZM532.681 122H523.081V103.504C523.081 101.285 522.654 99.728 521.801 98.832C520.947 97.8933 519.369 97.424 517.065 97.424C514.889 97.424 513.289 97.8507 512.265 98.704C511.283 99.5573 510.793 101.115 510.793 103.376L509.577 103.76L508.681 95.44H510.537C511.134 94.2027 511.902 93.1147 512.841 92.176C513.779 91.2373 514.931 90.512 516.297 90C517.662 89.4453 519.262 89.168 521.097 89.168C523.87 89.168 526.089 89.7227 527.753 90.832C529.459 91.9413 530.697 93.456 531.465 95.376C532.275 97.2533 532.681 99.3227 532.681 101.584V122ZM574.983 122.64C571.313 122.64 568.284 121.957 565.895 120.592C563.505 119.227 561.735 117.307 560.583 114.832C559.431 112.315 558.855 109.371 558.855 106C558.855 102.544 559.495 99.5573 560.775 97.04C562.097 94.5227 563.975 92.5813 566.407 91.216C568.839 89.8507 571.719 89.168 575.047 89.168C578.289 89.168 581.041 89.7653 583.303 90.96C585.607 92.1547 587.356 93.8187 588.551 95.952C589.788 98.0427 590.407 100.496 590.407 103.312C590.407 104.208 590.343 105.083 590.215 105.936C590.129 106.789 590.044 107.493 589.958 108.048H563.079V102.224H581.767L581.127 102.736C581.297 101.499 581.148 100.475 580.679 99.664C580.252 98.8107 579.527 98.1707 578.503 97.744C577.521 97.2747 576.263 97.04 574.727 97.04C572.081 97.04 570.268 97.6373 569.287 98.832C568.305 100.027 567.815 101.733 567.815 103.952V106.768C567.815 108.56 568.007 110.011 568.391 111.12C568.817 112.229 569.564 113.04 570.631 113.552C571.697 114.064 573.191 114.32 575.111 114.32C577.031 114.32 578.417 114.107 579.271 113.68C580.167 113.211 580.615 112.485 580.615 111.504V111.12H590.087V111.76C590.087 114.064 589.468 116.027 588.231 117.648C586.993 119.269 585.244 120.507 582.983 121.36C580.721 122.213 578.055 122.64 574.983 122.64ZM627.071 122H617.471V103.504C617.471 101.285 617.023 99.728 616.127 98.832C615.231 97.8933 613.567 97.424 611.135 97.424C609.599 97.424 608.34 97.616 607.359 98C606.42 98.384 605.716 99.0453 605.247 99.984C604.777 100.88 604.543 102.139 604.543 103.76H603.199L602.431 95.44H604.287C604.884 94.2027 605.652 93.1147 606.591 92.176C607.572 91.2373 608.767 90.512 610.175 90C611.583 89.4453 613.225 89.168 615.103 89.168C617.919 89.168 620.201 89.7227 621.951 90.832C623.7 91.9413 624.98 93.456 625.791 95.376C626.644 97.2533 627.071 99.3227 627.071 101.584V122ZM604.543 122H595.007V89.808H603.903V98.896L604.543 99.216V122Z" fill="white"/>
</g>
<rect x="0.5" y="0.5" width="693" height="202" rx="49.5" stroke="#ECECEC"/>
<defs>
<linearGradient id="paint0_linear_14_4285" x1="347" y1="0" x2="347" y2="203" gradientUnits="userSpaceOnUse">
<stop stop-color="#FFA800"/>
<stop offset="1" stop-color="#DB0000"/>
</linearGradient>
<clipPath id="clip0_14_4285">
<rect width="694" height="203" rx="50" fill="white"/>
</clipPath>
</defs>
</svg>
