<svg width="1148" height="1149" viewBox="0 0 1148 1149" fill="none" xmlns="http://www.w3.org/2000/svg">
<g filter="url(#filter0_f_12_2968)">
<path d="M574 150.01C339.833 150.01 150 339.868 150 574.041C150 808.152 339.833 998.042 574 998.042C808.167 998.042 998 808.152 998 574.041C998 339.868 808.167 150.01 574 150.01Z" fill="url(#paint0_linear_12_2968)"/>
</g>
<path d="M780.398 401.803C778.777 397.03 776.843 395.773 773.821 394.58C767.213 392.13 756.02 395.836 756.02 395.836C756.02 395.836 359.752 538.3 337.114 554.067C332.239 557.459 330.606 559.469 329.796 561.793C325.882 572.974 338.075 577.936 338.075 577.936L440.212 611.228C440.212 611.228 444.018 611.793 445.375 610.914C468.61 596.215 679.147 463.299 691.289 458.839C693.205 458.274 694.624 458.902 694.247 460.221C689.386 477.307 506.525 639.809 506.525 639.809C506.525 639.809 505.828 640.688 505.388 641.693L505.15 641.568L495.621 742.888C495.621 742.888 491.626 773.918 522.662 742.888C544.56 720.966 565.747 702.624 576.35 693.767C611.47 718.013 649.266 744.835 665.579 758.843C673.77 765.878 680.623 767.009 686.264 766.82C701.748 766.255 706.069 749.232 706.069 749.232C706.069 749.232 778.281 458.588 780.693 419.643C780.932 415.811 781.259 413.424 781.284 410.786C781.328 407.143 780.988 403.499 780.398 401.803Z" fill="white"/>
<defs>
<filter id="filter0_f_12_2968" x="0" y="0.00976562" width="1148" height="1148.03" filterUnits="userSpaceOnUse" color-interpolation-filters="sRGB">
<feFlood flood-opacity="0" result="BackgroundImageFix"/>
<feBlend mode="normal" in="SourceGraphic" in2="BackgroundImageFix" result="shape"/>
<feGaussianBlur stdDeviation="75" result="effect1_foregroundBlur_12_2968"/>
</filter>
<linearGradient id="paint0_linear_12_2968" x1="574" y1="150.01" x2="1118" y2="777" gradientUnits="userSpaceOnUse">
<stop stop-color="#FF2702"/>
<stop offset="1" stop-color="#FB8A26"/>
</linearGradient>
</defs>
</svg>
