<svg width="842" height="158" viewBox="0 0 842 158" fill="none" xmlns="http://www.w3.org/2000/svg">
<g filter="url(#filter0_f_11_2830)">
<ellipse cx="63.9188" cy="87.2038" rx="32.3484" ry="41.2365" transform="rotate(-165 63.9188 87.2038)" fill="url(#paint0_linear_11_2830)"/>
</g>
<path d="M168.176 120.28C158.107 120.28 150.555 118.36 145.52 114.52C140.571 110.68 138.096 104.877 138.096 97.112V96.728H156.4V99.416C156.4 100.952 156.784 102.147 157.552 103C158.32 103.853 159.557 104.451 161.264 104.792C163.056 105.048 165.488 105.176 168.56 105.176C171.205 105.176 173.168 105.048 174.448 104.792C175.728 104.451 176.581 103.981 177.008 103.384C177.435 102.701 177.648 101.848 177.648 100.824C177.648 99.032 176.965 97.8373 175.6 97.24C174.32 96.5573 171.547 95.832 167.28 95.064L157.552 93.272C153.371 92.504 149.829 91.352 146.928 89.816C144.027 88.28 141.808 86.232 140.272 83.672C138.736 81.0267 137.968 77.6987 137.968 73.688C137.968 67.7147 140.315 62.8507 145.008 59.096C149.787 55.256 156.784 53.336 166 53.336C171.291 53.336 176.027 54.1467 180.208 55.768C184.389 57.3893 187.675 59.8213 190.064 63.064C192.539 66.3067 193.776 70.36 193.776 75.224V77.016H175.472V75.224C175.472 73.7733 175.216 72.5787 174.704 71.64C174.192 70.616 173.211 69.8907 171.76 69.464C170.309 68.952 168.219 68.696 165.488 68.696C161.648 68.696 159.088 69.1227 157.808 69.976C156.613 70.744 156.016 71.896 156.016 73.432C156.016 74.968 156.528 76.0773 157.552 76.76C158.576 77.4427 161.008 78.168 164.848 78.936L176.624 81.368C181.147 82.2213 184.816 83.5013 187.632 85.208C190.448 86.8293 192.496 88.92 193.776 91.48C195.141 94.04 195.824 97.0693 195.824 100.568C195.824 106.627 193.435 111.448 188.656 115.032C183.963 118.531 177.136 120.28 168.176 120.28ZM268.266 119H249.066V82.008C249.066 77.5707 248.17 74.456 246.378 72.664C244.586 70.7867 241.258 69.848 236.394 69.848C231.871 69.848 228.543 70.7867 226.41 72.664C224.277 74.456 223.21 77.784 223.21 82.648H220.778L220.01 64.6H223.978C225.173 62.552 226.709 60.6747 228.586 58.968C230.549 57.2613 232.853 55.896 235.498 54.872C238.229 53.848 241.301 53.336 244.714 53.336C250.261 53.336 254.741 54.4453 258.154 56.664C261.653 58.8827 264.213 61.912 265.834 65.752C267.455 69.5067 268.266 73.6453 268.266 78.168V119ZM223.21 119H204.138V33.24H223.21V119ZM297.561 47.32H278.745L278.489 33.24H297.561V47.32ZM297.945 119H278.745V54.616H297.945V119ZM348.19 120.28C343.155 120.28 338.803 119.384 335.134 117.592C331.465 115.715 328.777 113.027 327.07 109.528H324.382L325.278 91.992H327.71C327.71 94.808 328.265 97.112 329.374 98.904C330.483 100.611 332.062 101.891 334.11 102.744C336.243 103.512 338.846 103.896 341.918 103.896C344.649 103.896 346.91 103.555 348.702 102.872C350.579 102.189 352.03 101.165 353.054 99.8C354.163 98.4347 354.931 96.6853 355.358 94.552C355.785 92.3333 355.998 89.7733 355.998 86.872C355.998 83.9707 355.785 81.4533 355.358 79.32C354.931 77.1013 354.163 75.3093 353.054 73.944C352.03 72.4933 350.579 71.4267 348.702 70.744C346.91 70.0613 344.649 69.72 341.918 69.72C338.846 69.72 336.243 70.1467 334.11 71C332.062 71.768 330.483 73.0053 329.374 74.712C328.265 76.4187 327.71 78.7227 327.71 81.624H325.278L324.382 63.576H328.478C329.929 60.8453 332.318 58.456 335.646 56.408C339.059 54.36 343.198 53.336 348.062 53.336C356.937 53.336 363.635 56.3653 368.158 62.424C372.766 68.4827 375.07 76.632 375.07 86.872C375.07 96.9413 372.766 105.048 368.158 111.192C363.635 117.251 356.979 120.28 348.19 120.28ZM326.43 119H308.638V33.24H327.71V103.768L326.43 105.432V119ZM442.503 119H424.711V107.736L424.327 104.024V79.064C424.327 75.3093 423.346 72.8773 421.383 71.768C419.42 70.6587 416.519 70.104 412.679 70.104C408.839 70.104 406.066 70.744 404.359 72.024C402.652 73.304 401.799 75.5653 401.799 78.808V80.216H383.495V78.808C383.495 73.688 384.732 69.208 387.207 65.368C389.767 61.528 393.266 58.584 397.703 56.536C402.226 54.4027 407.516 53.336 413.575 53.336C419.89 53.336 425.18 54.4453 429.447 56.664C433.799 58.7973 437.042 61.912 439.175 66.008C441.394 70.104 442.503 75.0533 442.503 80.856V119ZM402.055 120.28C396.338 120.28 391.516 118.787 387.591 115.8C383.751 112.813 381.831 108.419 381.831 102.616C381.831 99.288 382.599 96.3867 384.135 93.912C385.756 91.4373 388.06 89.432 391.047 87.896C394.119 86.2747 397.874 85.1227 402.311 84.44L425.607 80.984V93.4L405.895 96.472C403.932 96.8133 402.482 97.3253 401.543 98.008C400.604 98.6907 400.135 99.7147 400.135 101.08C400.135 102.787 400.818 103.981 402.183 104.664C403.548 105.347 405.639 105.688 408.455 105.688C411.1 105.688 413.618 105.389 416.007 104.792C418.482 104.109 420.487 102.915 422.023 101.208C423.559 99.416 424.327 96.856 424.327 93.528L426.119 110.296H423.943C422.834 111.832 421.298 113.368 419.335 114.904C417.458 116.44 415.111 117.72 412.295 118.744C409.479 119.768 406.066 120.28 402.055 120.28ZM472.96 119H453.888V54.616H471.68V72.92L472.96 73.56V119ZM472.96 78.68H469.376V64.984H472.448C474.069 61.7413 476.331 59.0107 479.232 56.792C482.219 54.488 485.973 53.336 490.496 53.336C495.019 53.336 498.603 54.36 501.248 56.408C503.979 58.3707 505.941 61.1013 507.136 64.6C508.331 68.0133 508.928 71.896 508.928 76.248V82.136H489.856V78.68C489.856 75.1813 489.259 72.792 488.064 71.512C486.869 70.232 484.736 69.592 481.664 69.592C478.763 69.592 476.587 70.232 475.136 71.512C473.685 72.792 472.96 75.1813 472.96 78.68ZM573.253 119H555.461V107.736L555.077 104.024V79.064C555.077 75.3093 554.096 72.8773 552.133 71.768C550.17 70.6587 547.269 70.104 543.429 70.104C539.589 70.104 536.816 70.744 535.109 72.024C533.402 73.304 532.549 75.5653 532.549 78.808V80.216H514.245V78.808C514.245 73.688 515.482 69.208 517.957 65.368C520.517 61.528 524.016 58.584 528.453 56.536C532.976 54.4027 538.266 53.336 544.325 53.336C550.64 53.336 555.93 54.4453 560.197 56.664C564.549 58.7973 567.792 61.912 569.925 66.008C572.144 70.104 573.253 75.0533 573.253 80.856V119ZM532.805 120.28C527.088 120.28 522.266 118.787 518.341 115.8C514.501 112.813 512.581 108.419 512.581 102.616C512.581 99.288 513.349 96.3867 514.885 93.912C516.506 91.4373 518.81 89.432 521.797 87.896C524.869 86.2747 528.624 85.1227 533.061 84.44L556.357 80.984V93.4L536.645 96.472C534.682 96.8133 533.232 97.3253 532.293 98.008C531.354 98.6907 530.885 99.7147 530.885 101.08C530.885 102.787 531.568 103.981 532.933 104.664C534.298 105.347 536.389 105.688 539.205 105.688C541.85 105.688 544.368 105.389 546.757 104.792C549.232 104.109 551.237 102.915 552.773 101.208C554.309 99.416 555.077 96.856 555.077 93.528L556.869 110.296H554.693C553.584 111.832 552.048 113.368 550.085 114.904C548.208 116.44 545.861 117.72 543.045 118.744C540.229 119.768 536.816 120.28 532.805 120.28ZM691.134 119H671.934V82.008C671.934 77.5707 671.081 74.456 669.374 72.664C667.667 70.7867 664.51 69.848 659.902 69.848C655.55 69.848 652.393 70.7013 650.43 72.408C648.467 74.1147 647.486 77.3147 647.486 82.008L645.054 82.52L643.134 65.88H645.822C647.017 63.4907 648.553 61.4 650.43 59.608C652.393 57.7307 654.782 56.2373 657.598 55.128C660.414 53.9333 663.785 53.336 667.71 53.336C673.257 53.336 677.737 54.4453 681.15 56.664C684.563 58.8827 687.081 61.912 688.702 65.752C690.323 69.5067 691.134 73.6453 691.134 78.168V119ZM603.71 119H584.638V54.616H602.43V72.792L603.71 73.432V119ZM647.486 119H628.286V82.008C628.286 77.5707 627.433 74.456 625.726 72.664C624.019 70.7867 620.862 69.848 616.254 69.848C611.902 69.848 608.702 70.7013 606.654 72.408C604.691 74.1147 603.71 77.2293 603.71 81.752L601.278 82.52L599.486 65.88H603.198C604.393 63.4053 605.929 61.2293 607.806 59.352C609.683 57.4747 611.987 56.024 614.718 55C617.449 53.8907 620.649 53.336 624.318 53.336C629.865 53.336 634.302 54.4453 637.63 56.664C641.043 58.8827 643.518 61.912 645.054 65.752C646.675 69.5067 647.486 73.6453 647.486 78.168V119ZM732.09 120.28C724.751 120.28 718.693 118.915 713.914 116.184C709.135 113.453 705.594 109.613 703.29 104.664C700.986 99.6293 699.834 93.7413 699.834 87C699.834 80.088 701.114 74.1147 703.674 69.08C706.319 64.0453 710.074 60.1627 714.938 57.432C719.802 54.7013 725.562 53.336 732.218 53.336C738.703 53.336 744.207 54.5307 748.73 56.92C753.338 59.3093 756.837 62.6373 759.226 66.904C761.701 71.0853 762.938 75.992 762.938 81.624C762.938 83.416 762.81 85.1653 762.554 86.872C762.383 88.5787 762.213 89.9867 762.042 91.096H708.282V79.448H745.658L744.378 80.472C744.719 77.9973 744.421 75.9493 743.482 74.328C742.629 72.6213 741.178 71.3413 739.13 70.488C737.167 69.5493 734.65 69.08 731.578 69.08C726.287 69.08 722.661 70.2747 720.698 72.664C718.735 75.0533 717.754 78.4667 717.754 82.904V88.536C717.754 92.12 718.138 95.0213 718.906 97.24C719.759 99.4587 721.253 101.08 723.386 102.104C725.519 103.128 728.506 103.64 732.346 103.64C736.186 103.64 738.959 103.213 740.666 102.36C742.458 101.421 743.354 99.9707 743.354 98.008V97.24H762.298V98.52C762.298 103.128 761.061 107.053 758.586 110.296C756.111 113.539 752.613 116.013 748.09 117.72C743.567 119.427 738.234 120.28 732.09 120.28ZM836.266 119H817.066V82.008C817.066 77.5707 816.17 74.456 814.378 72.664C812.586 70.7867 809.258 69.848 804.394 69.848C801.322 69.848 798.805 70.232 796.842 71C794.965 71.768 793.557 73.0907 792.618 74.968C791.679 76.76 791.21 79.2773 791.21 82.52H788.522L786.986 65.88H790.698C791.893 63.4053 793.429 61.2293 795.306 59.352C797.269 57.4747 799.658 56.024 802.474 55C805.29 53.8907 808.575 53.336 812.33 53.336C817.962 53.336 822.527 54.4453 826.026 56.664C829.525 58.8827 832.085 61.912 833.706 65.752C835.413 69.5067 836.266 73.6453 836.266 78.168V119ZM791.21 119H772.138V54.616H789.93V72.792L791.21 73.432V119Z" fill="white"/>
<defs>
<filter id="filter0_f_11_2830" x="0.890625" y="16.4937" width="126.056" height="141.42" filterUnits="userSpaceOnUse" color-interpolation-filters="sRGB">
<feFlood flood-opacity="0" result="BackgroundImageFix"/>
<feBlend mode="normal" in="SourceGraphic" in2="BackgroundImageFix" result="shape"/>
<feGaussianBlur stdDeviation="15" result="effect1_foregroundBlur_11_2830"/>
</filter>
<linearGradient id="paint0_linear_11_2830" x1="63.9188" y1="45.9673" x2="63.9188" y2="128.44" gradientUnits="userSpaceOnUse">
<stop stop-color="#FF7A00"/>
<stop offset="1" stop-color="#FF1F00"/>
</linearGradient>
</defs>
</svg>
